name C:\Users\antoi\Documents\MyRepositories\upper-imu-dc\Results\main_tracking\Case_88\kinematics.mot
datacolumns 10
datarows 47
range 0.70000000 1.16000000
endheader 
time	clav_prot	clav_elev	scapula_abduction	scapula_elevation	scapula_upward_rot	scapula_winging	plane_elv	shoulder_elv	axial_rot	
          0.70000000	        -25.80424872	         11.32633107	        -24.50559039	          7.59894507	         13.48696610	          3.94989803	         39.82598570	         12.94831194	        -10.47653037	
          0.71000000	        -25.67711007	         11.21216285	        -24.40191530	          7.61257250	         13.17993107	          4.06692167	         40.34075787	         13.62153590	        -10.93297550	
          0.72000000	        -25.55285379	         11.09729704	        -24.29542310	          7.62301871	         12.88118958	          4.17952474	         40.85579843	         14.30576044	        -11.38934851	
          0.73000000	        -25.43034594	         10.98056761	        -24.18507773	          7.62974422	         12.58997173	          4.28795140	         41.37206160	         15.00077632	        -11.84632331	
          0.74000000	        -25.30905209	         10.86183708	        -24.06989886	          7.63262178	         12.30639044	          4.39223971	         41.89035817	         15.70666575	        -12.30399840	
          0.75000000	        -25.18838862	         10.74101367	        -23.94890963	          7.63159442	         12.03045738	          4.49247402	         42.41158626	         16.42346099	        -12.76222037	
          0.76000000	        -25.06773913	         10.61805297	        -23.82113402	          7.62666087	         11.76213223	          4.58876300	         42.93669280	         17.15108102	        -13.22056572	
          0.77000000	        -24.94647216	         10.49294979	        -23.68562776	          7.61787155	         11.50131162	          4.68123899	         43.46663141	         17.88934650	        -13.67838444	
          0.78000000	        -24.82396674	         10.36572410	        -23.54150192	          7.60531003	         11.24784794	          4.77004429	         44.00231472	         18.63799016	        -14.13486489	
          0.79000000	        -24.69963635	         10.23640223	        -23.38795205	          7.58907635	         11.00155030	          4.85532425	         44.54457201	         19.39666575	        -14.58912507	
          0.80000000	        -24.57295817	         10.10500217	        -23.22429613	          7.56927111	         10.76219207	          4.93721878	         45.09409807	         20.16495912	        -15.04030873	
          0.81000000	        -24.44350801	          9.97150944	        -23.05000642	          7.54596583	         10.52953739	          5.01584540	         45.65141311	         20.94245470	        -15.48770646	
          0.82000000	        -24.31108793	          9.83588697	        -22.86486699	          7.51916071	         10.30347283	          5.09124113	         46.21665417	         21.72880647	        -15.93089396	
          0.83000000	        -24.17582938	          9.69845047	        -22.66930990	          7.48903170	         10.08413828	          5.16337241	         46.78936056	         22.52373180	        -16.36989945	
          0.84000000	        -24.03807923	          9.55940401	        -22.46402385	          7.45562241	          9.87177288	          5.23213381	         47.36876181	         23.32708801	        -16.80517571	
          0.85000000	        -23.89826739	          9.41891314	        -22.24984027	          7.41895138	          9.66658598	          5.29742625	         47.95400506	         24.13878043	        -17.23756269	
          0.86000000	        -23.75690744	          9.27711159	        -22.02774472	          7.37902082	          9.46874681	          5.35916452	         48.54413365	         24.95872671	        -17.66827019	
          0.87000000	        -23.61457355	          9.13408439	        -21.79883225	          7.33580868	          9.27837364	          5.41728294	         49.13814241	         25.78687325	        -18.09886358	
          0.88000000	        -23.47188032	          8.98986257	        -21.56426296	          7.28926278	          9.09554402	          5.47173429	         49.73501221	         26.62321783	        -18.53122424	
          0.89000000	        -23.32946580	          8.84442241	        -21.32523828	          7.23930525	          8.92028302	          5.52249661	         50.33375224	         27.46779521	        -18.96749444	
          0.90000000	        -23.18796331	          8.69769015	        -21.08297629	          7.18585089	          8.75252275	          5.56959121	         50.93342377	         28.32061641	        -19.41001004	
          0.91000000	        -23.04799366	          8.54957623	        -20.83868371	          7.12881618	          8.59216109	          5.61306663	         51.53312031	         29.18168996	        -19.86120643	
          0.92000000	        -22.91015006	          8.39997859	        -20.59353206	          7.06812383	          8.43905855	          5.65300035	         52.13199309	         30.05097994	        -20.32347906	
          0.93000000	        -22.77497869	          8.24878419	        -20.34862725	          7.00370747	          8.29303063	          5.68950133	         52.72927117	         30.92838066	        -20.79910535	
          0.94000000	        -22.64294339	          8.09590925	        -20.10493717	          6.93552818	          8.15390274	          5.72269515	         53.32424243	         31.81368791	        -21.29004771	
          0.95000000	        -22.51444256	          7.94128636	        -19.86331513	          6.86356354	          8.02150797	          5.75271952	         53.91628995	         32.70658983	        -21.79786657	
          0.96000000	        -22.38975936	          7.78491027	        -19.62440288	          6.78782865	          7.89574442	          5.77970852	         54.50486188	         33.60664873	        -22.32356617	
          0.97000000	        -22.26909458	          7.62682749	        -19.38866316	          6.70835396	          7.77661133	          5.80377372	         55.08951420	         34.51327123	        -22.86746128	
          0.98000000	        -22.15250569	          7.46718767	        -19.15628611	          6.62522335	          7.66422820	          5.82500179	         55.66986571	         35.42570959	        -23.42913446	
          0.99000000	        -22.04787670	          7.30683973	        -18.94180854	          6.53854272	          7.55884174	          5.84346543	         56.24565684	         36.34304393	        -24.00733763	
          1.00000000	        -21.93921990	          7.14490784	        -18.71590472	          6.44850890	          7.46084748	          5.85916712	         56.81665822	         37.26425038	        -24.59998925	
          1.01000000	        -21.83419194	          6.98244783	        -18.49261948	          6.35529910	          7.37081840	          5.87204201	         57.38278524	         38.18812133	        -25.20419586	
          1.02000000	        -21.73242388	          6.82004841	        -18.27123868	          6.25917597	          7.28949270	          5.88198783	         57.94396300	         39.11332848	        -25.81636708	
          1.03000000	        -21.63353165	          6.65836322	        -18.05096612	          6.16040970	          7.21775035	          5.88884596	         58.50019686	         40.03843128	        -26.43231319	
          1.04000000	        -21.53708385	          6.49814695	        -17.83089575	          6.05931652	          7.15658746	          5.89241235	         59.05149304	         40.96192999	        -27.04741130	
          1.05000000	        -21.44267338	          6.34019227	        -17.61013068	          5.95621892	          7.10707179	          5.89244561	         59.59786955	         41.88228863	        -27.65679155	
          1.06000000	        -21.34990728	          6.18534613	        -17.38777452	          5.85146120	          7.07033676	          5.88867015	         60.13930526	         42.79795520	        -28.25545387	
          1.07000000	        -21.25845565	          6.03445360	        -17.16302745	          5.74538480	          7.04751098	          5.88079602	         60.67573683	         43.70741765	        -28.83849285	
          1.08000000	        -21.16806335	          5.88834168	        -16.93520717	          5.63832037	          7.03970180	          5.86852460	         61.20704365	         44.60921464	        -29.40119954	
          1.09000000	        -21.07855356	          5.74780448	        -16.70376869	          5.53058897	          7.04795477	          5.85156287	         61.73303473	         45.50196788	        -29.93920096	
          1.10000000	        -20.98985203	          5.61356096	        -16.46835307	          5.42248274	          7.07320575	          5.82963927	         62.25346005	         46.38441059	        -30.44858040	
          1.11000000	        -20.90197658	          5.48625647	        -16.22877349	          5.31426937	          7.11627350	          5.80250874	         62.76800707	         47.25539320	        -30.92591420	
          1.12000000	        -20.81503180	          5.36645095	        -15.98501719	          5.20619282	          7.17782923	          5.76996464	         63.27630611	         48.11389776	        -31.36832982	
          1.13000000	        -20.72920524	          5.25460437	        -15.73724412	          5.09846860	          7.25837633	          5.73184727	         63.77794000	         48.95904195	        -31.77352712	
          1.14000000	        -20.64475638	          5.15107123	        -15.48576904	          4.99128155	          7.35824584	          5.68804730	         64.27244978	         49.79007534	        -32.13976575	
          1.15000000	        -20.56199855	          5.05610156	        -15.23103224	          4.88478759	          7.47759622	          5.63850767	         64.75933541	         50.60637675	        -32.46585150	
          1.16000000	        -20.48128126	          4.96984105	        -14.97356835	          4.77911327	          7.61641828	          5.58322333	         65.23805858	         51.40744817	        -32.75110901	
